<?xml version="1.0" encoding="utf-8"?>
<!-- Generator: Adobe Illustrator 23.0.0, SVG Export Plug-In . SVG Version: 6.00 Build 0)  -->
<svg version="1.1" id="Calque_1" xmlns="http://www.w3.org/2000/svg" xmlns:xlink="http://www.w3.org/1999/xlink" x="0px" y="0px"
	 viewBox="0 0 159 61.8" style="enable-background:new 0 0 159 61.8;" xml:space="preserve">
<style type="text/css">
	.st0{fill:#E22121;}
	.st1{fill:#E1001A;}
	.st2{fill:#030404;}
	.st3{fill:#1D1D1B;}
</style>
<path class="st0" d="M34.6,41.8c-0.1,0-0.1,0-0.2,0c0,0-1.3,1.9-3.8,1.9c-0.8,0-1.5-0.3-2-0.9c-0.5-0.6-0.7-1.4-0.5-2.2l9.7-40
	c0,0,0-0.1,0-0.1c0,0-0.1-0.1-0.1-0.1h-7.2c-0.1,0-0.1,0-0.1,0.1l-5.7,22.9c-0.1,0-1.9-5.9-7.8-5.9c-3.1,0-6.4,1.6-9.4,4.5
	C4.5,25,2.2,29,1.1,33.1c-1.3,4.8-0.8,9.4,1.4,12.2c1.4,1.9,3.4,2.8,5.8,2.8c5.9,0,11.1-6,11.1-6c0.1,0.5,0.4,1.7,1.1,2.9
	c0.8,1.4,2.5,3.1,5.4,3.1c3.6,0,7.4-2.7,8.9-6.2C34.7,41.9,34.7,41.9,34.6,41.8z M12.7,44.7c-1.1,0-2.1-0.5-2.8-1.4
	c-1.6-2-1.9-6.1-0.7-10.6c1.7-6.5,5.9-11.6,9.4-11.6c1.1,0,2.1,0.5,2.8,1.4c1.6,2,1.9,6.1,0.7,10.6C20.4,39.5,16.2,44.7,12.7,44.7z"
	/>
<path class="st1" d="M71.7,41.8c-0.1,0-0.1,0-0.2,0c0,0-1.3,1.9-3.8,1.9c-0.8,0-1.5-0.3-2-0.9c-0.5-0.6-0.7-1.4-0.5-2.2l5.2-21.3
	c0,0,0-0.1,0-0.1c0,0-0.1-0.1-0.1-0.1h-7.2c-0.1,0-0.1,0-0.1,0.1l-1.1,4.1c-0.1,0-1.9-5.9-7.8-5.9c-3.1,0-6.4,1.6-9.4,4.5
	c-3.1,3-5.3,6.9-6.4,11.1c-1.3,4.8-0.8,9.4,1.4,12.2c1.4,1.9,3.4,2.8,5.8,2.8c5.9,0,11.1-6,11.1-6c0.1,0.5,0.4,1.7,1.1,2.9
	c0.8,1.4,2.5,3.1,5.4,3.1c3.6,0,7.4-2.7,8.9-6.2C71.8,41.9,71.8,41.9,71.7,41.8z M49.8,44.7c-1.1,0-2.1-0.5-2.8-1.4
	c-1.6-2-1.9-6.1-0.7-10.6c1.7-6.5,5.9-11.6,9.4-11.6c1.1,0,2.1,0.5,2.8,1.4c1.6,2,1.9,6.1,0.7,10.6C57.5,39.5,53.3,44.7,49.8,44.7z"
	/>
<path class="st1" d="M157.4,20.2c-1.3-1.6-3.6-2.4-6.8-2.4c-3.9,0-7.9,1.7-11.2,4.7c-3.2,2.9-5.5,6.7-6.5,10.8
	c-1.1,4.4-0.5,8.5,1.6,11.2c1.7,2.2,4.3,3.4,7.5,3.4c7.6,0,11.2-5.7,12.4-8.1v0l0,0c0-0.1,0-0.2-0.1-0.2c-0.1,0-0.2,0-0.2,0.1l0,0
	c0,0,0,0,0,0c-0.1,0.2-0.9,1.7-2.4,3.2c-2,1.9-4.3,2.9-6.9,2.9c-1.3,0-3.1-0.3-4.2-1.8c-1.5-2-1.6-5.5-0.1-10.4h0.7
	c10.3,0,16.1-4.4,17.1-8.5C158.7,23.2,158.4,21.5,157.4,20.2z M143.9,23.8c1.4-2.7,2.8-4.1,4.3-4.1c1,0,1.6,0.5,1.9,0.9
	c0.7,0.8,0.8,2.1,0.4,3.9c-0.7,2.6-3.5,7.6-9.7,7.7C140.8,32.2,142.7,26.1,143.9,23.8z"/>
<path class="st1" d="M128.3,33l-4-8l0.6-0.4c0,0,1.9-1.3,2.4-3.3c0.3-1.2,0.1-2.2-0.5-3c-0.6-0.7-1.5-1.1-2.5-1.1
	c-3.6,0-6.8,3.1-7.5,6.1c-0.4,1.4-0.1,2.6,0.1,3.2c0.1,0.3,0.8,1.9,1.2,2.7l-8.5,10.3c-3,3.5-4.5,4.7-6.2,4.7
	c-0.9,0-1.7-0.4-2.3-1.1c-0.5-0.7-0.7-1.6-0.4-2.5l4.1-16c0.5-1.9,0.2-3.6-0.8-4.9c-0.9-1.2-2.4-1.9-4.2-1.9c-3.9,0-6.7,2.9-8.8,5.4
	l-3.7,4.4l0.9-3.8c0.3-1.4,0-2.7-0.9-3.8c-0.8-0.9-2.1-1.5-3.5-1.5c-3.5,0-7,2.9-7.9,6.4v0c0,0,0,0,0,0c0,0,0,0,0,0c0,0,0,0,0,0
	c0,0,0,0,0,0l0,0v0c0,0,0,0,0,0c0,0.1,0,0.1,0.1,0.1c0,0,0,0,0,0c0,0,0,0,0.1,0c0,0,0,0,0,0c0,0,0,0,0,0c0,0,0,0,0,0c0,0,0,0,0,0
	c0,0,0,0,0,0c0,0,0,0,0,0c0,0,0,0,0,0l0,0l0,0h0c0,0,0,0,0,0c0,0,0,0,0,0c0,0,0,0,0,0c0,0,0,0,0,0h0c0-0.1,0.9-2.9,3.5-2.9
	c0.7,0,1.4,0.3,1.8,0.8c0.4,0.5,0.5,1.3,0.4,2l-5.5,21.9c0,0,0,0.1,0,0.1c0,0,0.1,0.1,0.1,0.1h5.9c0.1,0,0.1,0,0.1-0.1l4.3-17.6
	l2.6-2.9c3-3.5,4.5-4.7,6.2-4.7c0.9,0,1.7,0.4,2.3,1.1c0.5,0.7,0.7,1.6,0.4,2.5l-4.1,16C93.7,43.3,94,45,95,46.3
	c0.9,1.2,2.4,1.9,4.2,1.9c4.3,0,9.2-5.9,9.2-5.9c0.4,1,2.8,6.1,8.7,6.1c4.9,0,10.8-2.5,12.2-7.9C129.9,38.2,129.6,35.8,128.3,33z
	 M122.3,42.1c-0.6,2.1-2.7,3.6-5.1,3.6c-5.2,0-6.8-4.6-7.1-5.6l8.4-10.1l3.4,7.5C122.5,38.9,122.6,40.7,122.3,42.1z"/>
<g>
	<path class="st0" d="M50.8,0.7l1.4,8.4l1.1-8.4H57l1.5,14.2h-2.9L55,4.7c-0.1,1.3-0.2,2-0.4,3.3l-1.3,6.9h-2.1l-1.3-6.4
		c0-0.1-0.1-0.5-0.2-1.2c-0.2-1.1-0.2-1.1-0.3-2.6l-0.4,10.2h-3l1.3-14.2H50.8z"/>
	<path class="st0" d="M66.1,0.7l3.4,14.2h-3L66,12.5h-2.8l-0.5,2.4h-2.8l3.3-14.2H66.1z M65.1,8.1c-0.3-1.3-0.4-2.3-0.6-3.7
		c-0.1,1.4-0.3,2.9-0.5,4l-0.4,2h2L65.1,8.1z"/>
	<path class="st0" d="M74.3,0.7v14.2h-2.8V0.7H74.3z"/>
	<path class="st0" d="M83.1,3.9c-0.8-0.6-1.4-0.9-2-0.9c-0.8,0-1.4,0.6-1.4,1.4c0,0.8,0.4,1.3,1.5,2.1c1.4,1.1,1.8,1.4,2.2,2
		c0.4,0.6,0.6,1.4,0.6,2.2c0,2.6-1.6,4.4-3.9,4.4c-1,0-1.8-0.2-2.5-0.7v-2.7c0.8,0.6,1.4,0.8,2.1,0.8c0.9,0,1.6-0.6,1.6-1.5
		c0-0.8-0.2-1-1.7-2.1c-1.9-1.3-2.6-2.4-2.6-4.2c0-2.5,1.5-4.2,3.7-4.2c0.9,0,1.6,0.2,2.5,0.7V3.9z"/>
	<path class="st0" d="M94.7,2.5C95.6,3.7,96,5.4,96,7.8c0,2.4-0.4,4.1-1.3,5.3c-0.8,1.2-2.3,2-3.7,2c-1.4,0-2.9-0.8-3.7-2
		c-0.9-1.3-1.3-2.9-1.3-5.3c0-2.4,0.4-4.1,1.3-5.3c0.8-1.2,2.3-2,3.7-2C92.5,0.5,93.9,1.3,94.7,2.5z M89.1,7.8c0,3,0.7,4.7,2,4.7
		c1.3,0,2-1.7,2-4.7c0-3-0.7-4.7-2-4.7C89.8,3.1,89.1,4.8,89.1,7.8z"/>
	<path class="st0" d="M101.4,0.7l3.5,8.6c-0.1-0.7-0.2-1.4-0.2-2V0.7h2.9v14.2h-2.7l-3.5-8.5c0.1,0.5,0.1,1.4,0.1,1.8v6.7h-2.8V0.7
		H101.4z"/>
	<path class="st0" d="M117.6,0.7c2.1,0,3.2,0.4,4.3,1.6c1.2,1.2,1.8,3.2,1.8,5.6c0,4.6-2,7-5.7,7h-2.7V0.7H117.6z M118,12.3
		c1.8,0,2.8-1.6,2.8-4.4c0-2.9-1-4.6-2.8-4.7V12.3z"/>
	<path class="st0" d="M132,0.7v2.6h-2.8v3.1h2.5v2.7h-2.5v3.2h2.9v2.6h-5.7V0.7H132z"/>
	<path class="st0" d="M142.3,0.7v11.5h2.9v2.7h-5.7V0.7H142.3z"/>
	<path class="st0" d="M153.2,0.7l3.4,14.2h-3l-0.5-2.4h-2.8l-0.5,2.4h-2.8l3.3-14.2H153.2z M152.2,8.1c-0.3-1.3-0.4-2.3-0.6-3.7
		c-0.1,1.4-0.3,2.9-0.5,4l-0.4,2h2L152.2,8.1z"/>
</g>
<g>
	<path class="st2" d="M11.4,53c1.5,0,2.3,0.7,2.3,2c0,0.9-0.4,1.6-1.1,2c-0.4,0.2-0.8,0.3-1.5,0.3h-0.8l-0.4,3.4H9L9.9,53H11.4z
		 M10.4,56.6h0.7c1.1,0,1.7-0.5,1.7-1.5c0-0.8-0.5-1.3-1.5-1.3h-0.7L10.4,56.6z"/>
	<path class="st2" d="M19.3,58.3c0,1.4-1.1,2.5-2.5,2.5c-1.4,0-2.5-1-2.5-2.4c0-1.4,1.1-2.6,2.6-2.6C18.3,55.9,19.3,56.9,19.3,58.3z
		 M15.1,58.4c0,1,0.7,1.7,1.6,1.7c1,0,1.7-0.8,1.7-1.8c0-1-0.7-1.7-1.6-1.7C15.9,56.6,15.1,57.4,15.1,58.4z M16.2,55.3l-0.4-0.4
		l1.6-1.4l1.2,1.4l-0.4,0.4l-0.9-1L16.2,55.3z"/>
	<path class="st2" d="M21.1,60.7h-0.8l1-8.4h0.8L21.1,60.7z"/>
	<path class="st2" d="M23.5,58.6c0,1,0.6,1.6,1.5,1.6c0.5,0,1-0.2,1.3-0.6l0.6,0.4c-0.5,0.7-1.1,1-1.9,1c-1.4,0-2.3-0.9-2.3-2.3
		c0-1.5,1-2.7,2.4-2.7c0.9,0,1.7,0.5,2,1.4c0.1,0.3,0.2,0.7,0.2,1.3H23.5z M26.4,57.9c-0.1-0.8-0.6-1.3-1.4-1.3
		c-0.8,0-1.3,0.4-1.5,1.3H26.4z"/>
	<path class="st2" d="M31.8,58.6c0,1,0.6,1.6,1.5,1.6c0.5,0,1-0.2,1.3-0.6l0.6,0.4c-0.5,0.7-1.1,1-1.9,1c-1.4,0-2.3-0.9-2.3-2.3
		c0-1.5,1-2.7,2.4-2.7c0.9,0,1.7,0.5,2,1.4c0.1,0.3,0.2,0.7,0.2,1.3H31.8z M34.8,57.9c-0.1-0.8-0.6-1.3-1.4-1.3
		c-0.8,0-1.3,0.4-1.5,1.3H34.8z"/>
	<path class="st2" d="M40.6,58.8c-0.1,0.8-0.2,1.1-0.5,1.5c-0.3,0.4-0.9,0.6-1.5,0.6c-1.1,0-1.8-0.6-1.8-1.6c0-0.2,0-0.4,0-0.6
		l0.3-2.6h0.8l-0.3,2.7c0,0.2,0,0.3,0,0.5c0,0.5,0.4,0.9,1,0.9c0.7,0,1.1-0.3,1.2-1.2l0.3-2.8h0.8L40.6,58.8z"/>
	<path class="st2" d="M43.2,56.6c0.5-0.5,0.8-0.6,1.2-0.6c0.3,0,0.5,0.1,0.8,0.3l-0.5,0.7c-0.2-0.1-0.4-0.2-0.6-0.2
		c-0.6,0-1,0.5-1.2,1.6l-0.3,2.4h-0.8l0.6-4.7h0.8L43.2,56.6z"/>
	<path class="st2" d="M50.6,58.3c0,1.4-1.1,2.5-2.5,2.5c-1.4,0-2.5-1-2.5-2.4c0-1.4,1.1-2.6,2.6-2.6C49.6,55.9,50.6,56.9,50.6,58.3z
		 M46.4,58.4c0,1,0.7,1.7,1.6,1.7c1,0,1.7-0.8,1.7-1.8c0-1-0.7-1.7-1.6-1.7C47.1,56.6,46.4,57.4,46.4,58.4z"/>
	<path class="st2" d="M52.9,56.7c0.6-0.6,1-0.8,1.6-0.8c1.3,0,2.2,1,2.2,2.3c0,1.5-1.1,2.6-2.5,2.6c-0.8,0-1.2-0.2-1.8-0.9L52,63.4
		h-0.8l0.9-7.4h0.8L52.9,56.7z M52.6,58.5c0,0.9,0.6,1.6,1.5,1.6c1,0,1.7-0.8,1.7-1.8c0-0.9-0.6-1.6-1.5-1.6
		C53.4,56.7,52.6,57.5,52.6,58.5z"/>
	<path class="st2" d="M58.5,58.6c0,1,0.6,1.6,1.5,1.6c0.5,0,1-0.2,1.3-0.6l0.6,0.4c-0.5,0.7-1.1,1-1.9,1c-1.4,0-2.3-0.9-2.3-2.3
		c0-1.5,1-2.7,2.4-2.7c0.9,0,1.7,0.5,2,1.4c0.1,0.3,0.2,0.7,0.2,1.3H58.5z M61.4,57.9c-0.1-0.8-0.6-1.3-1.4-1.3
		c-0.8,0-1.3,0.4-1.5,1.3H61.4z M60.4,55.3L60,55l1.2-1.5l0.6,0.5L60.4,55.3z"/>
	<path class="st2" d="M63.9,58.6c0,1,0.6,1.6,1.5,1.6c0.5,0,1-0.2,1.3-0.6l0.6,0.4c-0.5,0.7-1.1,1-1.9,1c-1.4,0-2.3-0.9-2.3-2.3
		c0-1.5,1-2.7,2.4-2.7c0.9,0,1.7,0.5,2,1.4c0.1,0.3,0.2,0.7,0.2,1.3H63.9z M66.8,57.9c-0.1-0.8-0.6-1.3-1.4-1.3
		c-0.8,0-1.3,0.4-1.5,1.3H66.8z"/>
	<path class="st2" d="M69.9,56.6c0.6-0.5,0.9-0.7,1.5-0.7c0.8,0,1.4,0.5,1.4,1.4c0,0.2,0,0.5-0.1,0.8l-0.3,2.6h-0.8l0.3-2.7
		c0-0.2,0-0.5,0-0.6c0-0.5-0.3-0.8-0.8-0.8c-0.3,0-0.7,0.2-0.9,0.4c-0.3,0.3-0.4,0.5-0.5,1.2l-0.3,2.5h-0.8l0.6-4.7H70L69.9,56.6z"
		/>
	<path class="st2" d="M81.5,60.7h-0.8l0.1-0.6c-0.6,0.6-1,0.7-1.6,0.7c-1.3,0-2.2-1-2.2-2.3c0-1.5,1.1-2.6,2.5-2.6
		c0.7,0,1.2,0.3,1.8,1l0.6-4.6h0.8L81.5,60.7z M77.7,58.5c0,0.9,0.6,1.6,1.5,1.6c1,0,1.7-0.9,1.7-1.9c0-0.9-0.6-1.5-1.6-1.5
		C78.4,56.7,77.7,57.5,77.7,58.5z"/>
	<path class="st2" d="M83.8,58.6c0,1,0.6,1.6,1.5,1.6c0.5,0,1-0.2,1.3-0.6l0.6,0.4c-0.5,0.7-1.1,1-1.9,1c-1.4,0-2.3-0.9-2.3-2.3
		c0-1.5,1-2.7,2.4-2.7c0.9,0,1.7,0.5,2,1.4c0.1,0.3,0.2,0.7,0.2,1.3H83.8z M86.8,57.9c-0.1-0.8-0.6-1.3-1.4-1.3
		c-0.8,0-1.3,0.4-1.5,1.3H86.8z"/>
	<path class="st2" d="M95.4,57.4c-0.5-0.6-0.9-0.8-1.5-0.8c-1,0-1.7,0.8-1.7,1.9c0,1,0.7,1.6,1.6,1.6c0.5,0,0.8-0.1,1.3-0.5L95,60.5
		c-0.5,0.3-0.8,0.4-1.3,0.4c-1.3,0-2.3-1-2.3-2.4c0-1.5,1.1-2.6,2.5-2.6c0.7,0,1.1,0.2,1.7,0.6L95.4,57.4z"/>
	<path class="st2" d="M97.5,56.6c0.5-0.5,0.8-0.6,1.2-0.6c0.3,0,0.5,0.1,0.8,0.3L99,56.9c-0.2-0.1-0.4-0.2-0.6-0.2
		c-0.6,0-1,0.5-1.2,1.6L97,60.7h-0.8l0.6-4.7h0.8L97.5,56.6z"/>
	<path class="st2" d="M100.7,58.6c0,1,0.6,1.6,1.5,1.6c0.5,0,1-0.2,1.3-0.6l0.6,0.4c-0.5,0.7-1.1,1-1.9,1c-1.4,0-2.3-0.9-2.3-2.3
		c0-1.5,1-2.7,2.4-2.7c0.9,0,1.7,0.5,2,1.4c0.1,0.3,0.2,0.7,0.2,1.3H100.7z M103.6,57.9c-0.1-0.8-0.6-1.3-1.4-1.3
		c-0.8,0-1.3,0.4-1.5,1.3H103.6z M102.6,55.3l-0.4-0.3l1.2-1.5l0.6,0.5L102.6,55.3z"/>
	<path class="st2" d="M109.8,60.7H109l0.1-0.7c-0.6,0.6-1,0.8-1.6,0.8c-1.3,0-2.2-0.9-2.2-2.3c0-1.5,1-2.6,2.4-2.6
		c0.8,0,1.2,0.2,1.8,0.9l0.1-0.8h0.8L109.8,60.7z M106.1,58.6c0,0.9,0.6,1.5,1.5,1.5c0.9,0,1.7-0.9,1.7-1.9c0-0.9-0.6-1.5-1.5-1.5
		C106.9,56.7,106.1,57.5,106.1,58.6z"/>
	<path class="st2" d="M112.3,60.7h-0.8l0.5-4h-0.6l0.1-0.7h0.6l0.2-1.9h0.8l-0.2,1.9h0.9l-0.1,0.7h-0.9L112.3,60.7z"/>
	<path class="st2" d="M114.9,60.7h-0.8l0.6-4.7h0.8L114.9,60.7z M115.9,54c0,0.3-0.2,0.5-0.5,0.5c-0.3,0-0.5-0.2-0.5-0.5
		c0-0.3,0.2-0.5,0.5-0.5C115.6,53.5,115.9,53.7,115.9,54z"/>
	<path class="st2" d="M121.5,58.3c0,1.4-1.1,2.5-2.5,2.5c-1.4,0-2.5-1-2.5-2.4c0-1.4,1.1-2.6,2.6-2.6
		C120.5,55.9,121.5,56.9,121.5,58.3z M117.3,58.4c0,1,0.7,1.7,1.6,1.7c1,0,1.7-0.8,1.7-1.8c0-1-0.7-1.7-1.6-1.7
		C118.1,56.6,117.3,57.4,117.3,58.4z"/>
	<path class="st2" d="M123.8,56.6c0.6-0.5,0.9-0.7,1.5-0.7c0.8,0,1.4,0.5,1.4,1.4c0,0.2,0,0.5-0.1,0.8l-0.3,2.6h-0.8l0.3-2.7
		c0-0.2,0-0.5,0-0.6c0-0.5-0.3-0.8-0.8-0.8c-0.3,0-0.7,0.2-0.9,0.4c-0.3,0.3-0.4,0.5-0.5,1.2l-0.3,2.5h-0.8l0.6-4.7h0.8L123.8,56.6z
		"/>
	<path class="st0" d="M133,54.5v7.1h-1.1v-7.1H133z"/>
	<path class="st2" d="M139.3,59.8h1.7v0.9h-2.8v-5.6h1.1V59.8z"/>
	<path class="st2" d="M141.1,55.1h1.3l1.2,1.9l1.2-1.9h1.3l-2,3v2.6H143v-2.6L141.1,55.1z"/>
	<path class="st2" d="M152.3,57.9c0,1.6-1.3,2.9-3,2.9c-1.7,0-3-1.3-3-2.9c0-1.6,1.3-2.9,3-2.9C151,55,152.3,56.3,152.3,57.9z
		 M147.5,57.9c0,1.1,0.8,1.9,1.9,1.9c1,0,1.9-0.9,1.9-1.9c0-1.1-0.8-1.9-1.9-1.9C148.3,56,147.5,56.9,147.5,57.9z"/>
	<path class="st2" d="M153.4,55h0.8l3.4,3.9v-3.8h1.1v5.7h-0.8l-3.4-3.9v3.8h-1.1V55z"/>
</g>
<polygon class="st3" points="0.4,60.7 5.1,57.9 0.4,55 "/>
</svg>
